<svg width="180" height="180" viewBox="0 0 180 180" fill="none" xmlns="http://www.w3.org/2000/svg"><rect width="180" height="180" rx="34" fill="#2C2C2C"/><path d="M45 45h90v10H45V45z" fill="#D4AF37"/><path d="M45 67h67v10H45V67z" fill="#D4AF37"/><path d="M45 89h45v10H45V89z" fill="#D4AF37"/><path d="M45 111h23v10H45V111z" fill="#D4AF37"/><path d="M45 135h11v10H45V135z" fill="#D4AF37"/><path d="M113 135c0 12.4-10.1 22.5-22.5 22.5S68 147.4 68 135v-11h10v11c0 6.9 5.6 12.5 12.5 12.5S103 141.9 103 135v-11h10v11z" fill="#D4AF37"/><circle cx="135" cy="56" r="8.5" fill="#D4AF37" opacity="0.7"/><circle cx="146" cy="67" r="5.6" fill="#D4AF37" opacity="0.5"/><circle cx="141" cy="78" r="4.5" fill="#D4AF37" opacity="0.3"/></svg>
