<svg width="32" height="32" viewBox="0 0 32 32" fill="none" xmlns="http://www.w3.org/2000/svg">
  <!-- JAANU BOUTIQUE Logo - Elegant "J" with boutique styling -->
  <rect width="32" height="32" rx="6" fill="#2C2C2C"/>
  <path d="M8 8h16v2H8V8z" fill="#D4AF37"/>
  <path d="M8 12h12v2H8v-2z" fill="#D4AF37"/>
  <path d="M8 16h8v2H8v-2z" fill="#D4AF37"/>
  <path d="M8 20h4v2H8v-2z" fill="#D4AF37"/>
  <path d="M8 24h2v2H8v-2z" fill="#D4AF37"/>
  <!-- Elegant curve for "J" -->
  <path d="M20 20c0 2.2-1.8 4-4 4s-4-1.8-4-4v-2h2v2c0 1.1.9 2 2 2s2-.9 2-2v-2h2v2z" fill="#D4AF37"/>
  <!-- Boutique accent dots -->
  <circle cx="24" cy="10" r="1.5" fill="#D4AF37" opacity="0.7"/>
  <circle cx="26" cy="12" r="1" fill="#D4AF37" opacity="0.5"/>
  <circle cx="25" cy="14" r="0.8" fill="#D4AF37" opacity="0.3"/>
</svg>
