<svg width="32" height="32" viewBox="0 0 32 32" fill="none" xmlns="http://www.w3.org/2000/svg">
  <!-- Background circle -->
  <rect width="32" height="32" rx="6" fill="#2C2C2C"/>
  
  <!-- Dress form/mannequin -->
  <!-- Torso -->
  <path d="M16 6c-2.5 0-4.5 2-4.5 4.5v1c0 1.5 1 2.5 2.5 2.5h4c1.5 0 2.5-1 2.5-2.5v-1c0-2.5-2-4.5-4.5-4.5z" fill="#FF6B6B"/>
  
  <!-- Waist line -->
  <line x1="12" y1="14" x2="20" y2="14" stroke="#E0E0E0" stroke-width="0.5"/>
  
  <!-- Lower torso -->
  <path d="M12 14c0 2 1.5 3.5 3.5 3.5h1c2 0 3.5-1.5 3.5-3.5v-1h-8v1z" fill="#FF6B6B"/>
  
  <!-- Stand pole -->
  <rect x="15.5" y="17.5" width="1" height="6" fill="#E0E0E0"/>
  
  <!-- Ornate base -->
  <path d="M8 24c0-1 1-2 2-2h12c1 0 2 1 2 2v1c0 1-1 2-2 2H10c-1 0-2-1-2-2v-1z" fill="#E0E0E0"/>
  
  <!-- Decorative scrolls -->
  <path d="M6 25c0-0.5 0.5-1 1-1s1 0.5 1 1v0.5c0 0.5-0.5 1-1 1s-1-0.5-1-1V25z" fill="#D0D0D0"/>
  <path d="M24 25c0-0.5 0.5-1 1-1s1 0.5 1 1v0.5c0 0.5-0.5 1-1 1s-1-0.5-1-1V25z" fill="#D0D0D0"/>
  
  <!-- Boutique accent -->
  <circle cx="26" cy="8" r="1" fill="#D4AF37" opacity="0.8"/>
  <circle cx="6" cy="10" r="0.8" fill="#D4AF37" opacity="0.6"/>
</svg>